<svg xmlns="http://www.w3.org/2000/svg" viewBox="0 0 420 280" role="img" aria-label="Butter chicken bowl">
  <defs>
    <linearGradient id="bg" x1="0" y1="0" x2="1" y2="1">
      <stop offset="0" stop-color="#37150b"/>
      <stop offset="1" stop-color="#f97316"/>
    </linearGradient>
    <radialGradient id="curry" cx="50%" cy="45%" r="55%">
      <stop offset="0" stop-color="#fed7aa"/>
      <stop offset=".45" stop-color="#fb923c"/>
      <stop offset="1" stop-color="#9a3412"/>
    </radialGradient>
  </defs>
  <rect width="420" height="280" fill="url(#bg)"/>
  <circle cx="72" cy="54" r="42" fill="#fbbf24" opacity=".2"/>
  <circle cx="352" cy="218" r="84" fill="#111827" opacity=".25"/>
  <ellipse cx="210" cy="178" rx="150" ry="58" fill="#111827" opacity=".35"/>
  <ellipse cx="210" cy="145" rx="142" ry="92" fill="#f8fafc"/>
  <ellipse cx="210" cy="138" rx="122" ry="73" fill="url(#curry)"/>
  <g fill="#7c2d12" opacity=".9">
    <circle cx="160" cy="126" r="23"/>
    <circle cx="220" cy="154" r="26"/>
    <circle cx="262" cy="112" r="22"/>
  </g>
  <g fill="#ffedd5">
    <circle cx="154" cy="118" r="8"/>
    <circle cx="213" cy="145" r="9"/>
    <circle cx="270" cy="105" r="7"/>
  </g>
  <path d="M92 98c42-42 164-66 242 3" fill="none" stroke="#fff7ed" stroke-width="10" stroke-linecap="round" opacity=".7"/>
  <g fill="#22c55e">
    <ellipse cx="174" cy="92" rx="10" ry="5" transform="rotate(-18 174 92)"/>
    <ellipse cx="244" cy="184" rx="11" ry="5" transform="rotate(22 244 184)"/>
    <ellipse cx="288" cy="142" rx="9" ry="5" transform="rotate(-35 288 142)"/>
  </g>
</svg>
