<svg xmlns="http://www.w3.org/2000/svg" viewBox="0 0 420 280" role="img" aria-label="Crispy samosas">
  <defs>
    <linearGradient id="bg" x1="0" y1="0" x2="1" y2="1">
      <stop offset="0" stop-color="#052e16"/>
      <stop offset="1" stop-color="#f97316"/>
    </linearGradient>
    <linearGradient id="samosa" x1="0" y1="0" x2="1" y2="1">
      <stop offset="0" stop-color="#fde68a"/>
      <stop offset="1" stop-color="#d97706"/>
    </linearGradient>
  </defs>
  <rect width="420" height="280" fill="url(#bg)"/>
  <circle cx="74" cy="72" r="58" fill="#22c55e" opacity=".16"/>
  <circle cx="348" cy="214" r="76" fill="#fef3c7" opacity=".18"/>
  <ellipse cx="210" cy="222" rx="142" ry="24" fill="#111827" opacity=".35"/>
  <ellipse cx="210" cy="194" rx="142" ry="42" fill="#f8fafc"/>
  <path d="M119 188l62-118 75 123z" fill="url(#samosa)" stroke="#92400e" stroke-width="7" stroke-linejoin="round"/>
  <path d="M202 188l60-106 72 111z" fill="url(#samosa)" stroke="#92400e" stroke-width="7" stroke-linejoin="round"/>
  <path d="M153 152c19-8 39-8 61 0" fill="none" stroke="#92400e" stroke-width="5" stroke-linecap="round" opacity=".6"/>
  <path d="M238 154c17-7 35-7 55 0" fill="none" stroke="#92400e" stroke-width="5" stroke-linecap="round" opacity=".6"/>
  <circle cx="298" cy="194" r="24" fill="#16a34a"/>
  <circle cx="112" cy="198" r="22" fill="#dc2626"/>
  <g fill="#fef3c7" opacity=".55">
    <circle cx="153" cy="118" r="5"/>
    <circle cx="245" cy="121" r="5"/>
    <circle cx="286" cy="160" r="4"/>
  </g>
</svg>
